<svg id="Capa_1" enable-background="new 0 0 512 512" height="512" viewBox="0 0 512 512" width="512" xmlns="http://www.w3.org/2000/svg"><g><g><g><g><g><g><g><g><circle cx="256" cy="256" fill="#b180ff" r="256"/></g></g></g></g></g></g></g><path d="m496.65 343.518-215.932-215.932-95.831 12.966-24.256-24.256-42.544 21.993 63.537 63.537-24.739 120.616 59.551 59.551-35.708 54.817 75.19 75.19h.082c110.646 0 204.897-70.195 240.65-168.482z" fill="#8a40ff"/><path d="m334.878 274.194c-11.185 0-22.12 2.501-32.06 7.221v-101.57c0-40.234-32.732-72.966-72.966-72.966-21.949 0-41.666 9.742-55.053 25.128-14.591-19.828-32.569-31.351-52.433-33.488l-4.278 39.771c19.746 2.125 34.071 31.457 38.798 44.778v139.375h40v-142.598c0-18.177 14.789-32.966 32.966-32.966 18.178 0 32.966 14.789 32.966 32.966v132.679l-108.32 94.087 26.23 30.199 83.858-72.84c7.262 32.106 36.022 56.156 70.292 56.156 39.734 0 72.06-32.326 72.06-72.06v-1.812c0-39.734-32.326-72.06-72.06-72.06zm32.06 73.872c0 17.678-14.382 32.06-32.06 32.06s-32.06-14.382-32.06-32.06v-17.303l9.084-7.891c6.352-5.596 14.511-8.677 22.976-8.677 17.678 0 32.06 14.382 32.06 32.06z" fill="#fff"/><path d="m334.878 274.194c-11.185 0-22.12 2.501-32.06 7.221v-101.57c0-40.234-32.732-72.966-72.966-72.966-.018 0-.035.001-.053.001v40.001c.018 0 .035-.001.053-.001 18.178 0 32.966 14.789 32.966 32.966v132.679l-33.019 28.68v52.983l34.788-30.217c7.262 32.106 36.022 56.156 70.292 56.156 39.734 0 72.06-32.326 72.06-72.06v-1.812c-.001-39.735-32.327-72.061-72.061-72.061zm32.06 73.872c0 17.678-14.382 32.06-32.06 32.06s-32.06-14.382-32.06-32.06v-17.303l9.084-7.891c6.352-5.596 14.511-8.677 22.976-8.677 17.678 0 32.06 14.382 32.06 32.06z" fill="#e9edf5"/></g></svg>