<svg id="Layer_1" enable-background="new 0 0 512 512" height="512" viewBox="0 0 512 512" width="512" xmlns="http://www.w3.org/2000/svg"><g><g><g><g><path d="m504.079 256.006c0-137.022-111.07-248.082-248.076-248.082-137.012 0-248.083 111.06-248.083 248.082 0 137.001 111.07 248.07 248.083 248.07 137.006 0 248.076-111.069 248.076-248.07z" fill="#93783d"/></g></g></g><path d="m418.128 249.859c3.31-30.04-1.804-51.242-15.633-64.819-14.946-14.674-35.307-15.625-52.284-14.207v-11.4c0-21.317-19.481-36.206-47.374-36.206-15.038 0-29.52 4.33-40.776 12.199-.252.176-.486.365-.733.544-25.782-13.908-47.895-16.378-65.778-7.319-3.73 1.89-6.993 4.157-9.868 6.649-25.062-13.201-46.448-15.305-63.65-6.212-26.041 13.765-28.86 46.23-29.094 49.886-.646 9.946 6.863 18.476 16.803 19.191 9.874.739 18.602-6.785 19.396-16.721.41-5.165 3.376-16.921 9.917-20.314 5.273-2.729 14.537-1.106 26.11 4.444v12.951.036 141.879c0 10.021 8.121 18.14 18.142 18.14s18.143-8.118 18.143-18.14v-140.846c.578-3.806 3.474-15.019 10.501-18.579 5.734-2.9 15.527-1.226 27.597 4.561v154.863c0 10.021 8.121 18.14 18.142 18.14 10.02 0 18.141-8.118 18.141-18.14v-141.881c0-.026.004-.052.004-.078 0-2.965 0-10.845 11.781-15.94 10.655-4.607 22.277-3.109 26.315-1.011v158.91c0 .542.025 1.084.076 1.621.104 1.156.538 4.545 2.239 9.067-15.01 10.67-29.204 18.741-38.343 23.173-9.011 4.36-12.788 15.203-8.429 24.221 3.128 6.476 9.602 10.253 16.349 10.253 2.644 0 5.331-.58 7.877-1.811 1.977-.954 22.642-11.091 46.617-28.471 11.715 7.047 28.627 12.784 53.062 14.511.436.032.868.047 1.297.047 9.436 0 17.4-7.304 18.078-16.862.709-9.991-6.821-18.671-16.816-19.376-10.303-.729-18.316-2.262-24.546-4.158 23.056-22.244 43.17-50.408 46.737-82.795zm-41.052-38.926c2.981 2.924 7.591 11.352 4.989 34.951-2.238 20.315-15.301 39.798-31.854 56.667v-95.274c10.499-1.088 21.798-1.321 26.865 3.656z" fill="#fffdeb"/></g></svg>